<?xml version="1.0" standalone="no"?>
<!DOCTYPE svg PUBLIC "-//W3C//DTD SVG 20010904//EN"
 "http://www.w3.org/TR/2001/REC-SVG-20010904/DTD/svg10.dtd">
<svg version="1.0" xmlns="http://www.w3.org/2000/svg"
 width="900.000000pt" height="900.000000pt" viewBox="0 0 900.000000 900.000000"
 preserveAspectRatio="xMidYMid meet">
<metadata>
Created by potrace 1.14, written by Peter Selinger 2001-2017
</metadata>
<g transform="translate(0.000000,900.000000) scale(0.100000,-0.100000)"
fill="#000000" stroke="none">
<path d="M4515 7618 c-2140 -363 -3891 -660 -3892 -661 -1 -2 824 -6494 826
-6504 1 -2 1569 -3 3486 -3 l3485 0 0 3915 c0 2153 -3 3915 -7 3914 -5 0
-1758 -298 -3898 -661z m3345 -3748 c19 -7 38 -16 43 -19 4 -4 -2 -47 -13 -97
-12 -49 -25 -118 -31 -154 -5 -36 -15 -90 -22 -120 l-13 -55 -89 2 c-323 9
-337 7 -430 -53 -130 -84 -231 -232 -302 -444 -60 -180 -57 -119 -62 -985 l-6
-800 -277 -3 -278 -2 0 1345 0 1345 248 -2 247 -3 7 -70 c3 -38 7 -103 8 -143
2 -40 6 -75 10 -77 4 -2 21 17 38 43 46 72 110 139 179 188 34 24 64 44 67 44
3 0 29 11 58 24 48 21 95 37 153 50 44 10 430 -1 465 -14z m-4946 -48 c4 -7
27 -110 51 -232 8 -36 21 -96 30 -135 9 -38 20 -90 25 -115 4 -25 22 -112 40
-195 18 -82 36 -168 41 -190 4 -22 21 -103 38 -180 40 -191 109 -516 125 -595
19 -92 54 -255 67 -320 24 -110 24 -109 74 110 42 182 52 227 83 360 16 69 37
161 47 205 9 44 21 94 26 110 4 17 22 93 40 170 17 77 42 185 54 240 13 55 35
150 49 210 73 317 117 506 125 535 l8 25 303 0 303 0 24 -100 c13 -55 29 -129
37 -165 14 -70 83 -382 91 -415 3 -11 19 -81 35 -155 16 -74 35 -153 40 -175
6 -22 17 -71 25 -110 13 -65 37 -175 80 -365 10 -41 19 -86 22 -100 3 -14 17
-79 33 -145 15 -66 33 -147 40 -180 32 -151 36 -158 51 -83 11 56 63 302 96
448 14 63 31 144 38 180 7 36 20 97 29 135 9 39 27 124 41 190 13 66 31 152
40 190 8 39 22 104 31 145 9 41 19 91 24 110 4 19 22 100 39 180 47 226 80
373 87 398 l6 22 262 -2 261 -3 3 -23 c2 -13 -8 -69 -21 -125 -14 -56 -37
-153 -51 -215 -14 -61 -37 -160 -50 -220 -14 -59 -34 -147 -46 -197 -28 -122
-64 -282 -90 -390 -12 -49 -28 -119 -35 -155 -8 -36 -19 -83 -25 -105 -6 -22
-17 -69 -24 -105 -12 -58 -72 -323 -96 -425 -5 -22 -19 -80 -30 -130 -32 -139
-69 -300 -95 -410 -13 -55 -28 -118 -32 -140 l-9 -40 -359 0 -360 0 -12 50
c-7 28 -20 84 -27 125 -19 93 -51 244 -71 330 -20 88 -69 317 -155 720 -39
184 -75 351 -80 370 -8 32 -54 250 -67 323 -3 15 -9 27 -13 27 -11 0 -14 -12
-44 -155 -14 -66 -41 -192 -61 -280 -20 -88 -43 -191 -51 -230 -9 -38 -25
-108 -35 -154 -11 -46 -24 -105 -29 -130 -5 -25 -16 -77 -25 -116 -42 -184
-66 -291 -94 -420 -17 -77 -33 -149 -35 -160 -11 -45 -66 -293 -66 -299 0 -3
-160 -6 -355 -6 -336 0 -355 1 -355 18 0 10 -9 54 -21 98 -11 43 -27 108 -36
144 -8 36 -20 90 -27 120 -7 30 -36 154 -64 275 -29 121 -56 234 -61 250 -5
17 -17 64 -26 105 -9 41 -20 89 -24 105 -5 17 -17 64 -26 105 -17 78 -58 250
-95 405 -12 50 -32 135 -45 190 -29 123 -57 241 -96 405 -17 69 -41 172 -55
230 -13 58 -31 131 -40 163 -8 31 -12 62 -9 67 7 12 551 14 559 2z"/>
</g>
</svg>
